<svg width="24" height="18" viewBox="0 0 24 18" fill="none" xmlns="http://www.w3.org/2000/svg">
<path d="M9.45605 8.36316H11.6382V9.81791H9.45605V8.36316Z" fill="#D40511"/>
<path d="M17.7844 6.30461C16.4943 4.19362 14.7345 2.40887 12.6418 1.08932C11.675 0.476611 10.573 0.109868 9.43189 0.0211146C8.29077 -0.0676389 7.14528 0.124295 6.09541 0.580159C5.1771 1.01331 4.37804 1.66349 3.76721 2.47455C3.15639 3.2856 2.75217 4.23315 2.58946 5.23537C2.53127 5.57724 2.48763 5.90456 2.44398 6.2246C1.76297 6.33498 1.14335 6.68377 0.695685 7.2087C0.248024 7.73364 0.00146077 8.40057 0 9.09046V13.5493C0 13.9351 0.153268 14.3051 0.426087 14.5779C0.698906 14.8508 1.06893 15.004 1.45475 15.004V9.09046C1.45475 8.70464 1.60802 8.33462 1.88084 8.0618C2.15366 7.78898 2.52368 7.63571 2.90951 7.63571H16.5333C17.9351 7.63764 19.2791 8.19538 20.2703 9.18666C21.2616 10.1779 21.8194 11.5219 21.8213 12.9237V13.4547H20.3665C20.0593 12.7056 19.4871 12.0958 18.759 11.7417C18.0308 11.3876 17.1978 11.314 16.4189 11.5349C15.6399 11.7558 14.9696 12.2558 14.5358 12.9394C14.102 13.6231 13.935 14.4425 14.0669 15.2414C14.1987 16.0402 14.62 16.7626 15.2504 17.2706C15.8809 17.7786 16.6763 18.0367 17.4849 17.9957C18.2935 17.9547 19.0587 17.6174 19.6345 17.0481C20.2103 16.4789 20.5563 15.7176 20.6066 14.9095H21.8213C22.2071 14.9095 22.5771 14.7562 22.85 14.4834C23.1228 14.2106 23.276 13.8405 23.276 13.4547V12.9237C23.2731 11.354 22.7232 9.83438 21.7209 8.6263C20.7186 7.41822 19.3266 6.59724 17.7844 6.30461ZM6.54639 6.18096H3.58597C3.58597 5.95547 3.65143 5.72271 3.69507 5.45358C3.82074 4.65453 4.1487 3.9009 4.64776 3.26433C5.14683 2.62777 5.80042 2.12943 6.54639 1.8167V6.18096ZM8.00114 6.18096V1.5112C9.35912 1.33486 10.7363 1.63291 11.8999 2.35496C13.4883 3.34432 14.8592 4.64596 15.9295 6.18096H8.00114ZM17.3116 16.6406C16.9519 16.6406 16.6003 16.534 16.3013 16.3342C16.0022 16.1344 15.7692 15.8504 15.6315 15.5181C15.4939 15.1858 15.4579 14.8202 15.5281 14.4674C15.5982 14.1147 15.7714 13.7907 16.0257 13.5364C16.28 13.282 16.6041 13.1089 16.9568 13.0387C17.3095 12.9685 17.6752 13.0045 18.0074 13.1422C18.3397 13.2798 18.6237 13.5129 18.8235 13.8119C19.0233 14.111 19.13 14.4625 19.13 14.8222C19.13 15.3045 18.9384 15.767 18.5974 16.108C18.2564 16.449 17.7938 16.6406 17.3116 16.6406Z" fill="#D40511"/>
<path d="M8.85244 13.4547C8.54524 12.7056 7.97297 12.0958 7.24485 11.7417C6.51673 11.3876 5.68372 11.314 4.90478 11.5349C4.12585 11.7558 3.45551 12.2558 3.02169 12.9394C2.58787 13.6231 2.42094 14.4425 2.55276 15.2414C2.68457 16.0402 3.10589 16.7626 3.73633 17.2706C4.36677 17.7786 5.16219 18.0367 5.97081 17.9957C6.77943 17.9547 7.54463 17.6174 8.1204 17.0481C8.69618 16.4789 9.04221 15.7176 9.09247 14.9095H12.9476V14.7276C12.9332 14.2985 12.9822 13.8696 13.093 13.4547H8.85244ZM5.81928 16.6406C5.45963 16.6406 5.10805 16.534 4.80901 16.3342C4.50997 16.1344 4.27689 15.8504 4.13926 15.5181C4.00162 15.1858 3.96561 14.8202 4.03578 14.4674C4.10594 14.1147 4.27913 13.7907 4.53345 13.5364C4.78776 13.282 5.11178 13.1089 5.46452 13.0387C5.81726 12.9685 6.18289 13.0045 6.51517 13.1422C6.84744 13.2798 7.13144 13.5129 7.33126 13.8119C7.53107 14.111 7.63772 14.4625 7.63772 14.8222C7.63772 15.3045 7.44613 15.767 7.10511 16.108C6.76409 16.4491 6.30156 16.6406 5.81928 16.6406Z" fill="#D40511"/>
</svg>
