<svg width="10" height="10" viewBox="0 0 10 10" fill="none" xmlns="http://www.w3.org/2000/svg">
<path d="M9.22852 4.02344H6.72852C6.68555 4.02344 6.65039 4.05859 6.65039 4.10156V4.57031C6.65039 4.61328 6.68555 4.64844 6.72852 4.64844H9.22852C9.27148 4.64844 9.30664 4.61328 9.30664 4.57031V4.10156C9.30664 4.05859 9.27148 4.02344 9.22852 4.02344ZM7.91992 5.35156H6.72852C6.68555 5.35156 6.65039 5.38672 6.65039 5.42969V5.89844C6.65039 5.94141 6.68555 5.97656 6.72852 5.97656H7.91992C7.96289 5.97656 7.99805 5.94141 7.99805 5.89844V5.42969C7.99805 5.38672 7.96289 5.35156 7.91992 5.35156ZM4.66113 3.14941H4.23828C4.17773 3.14941 4.12891 3.19824 4.12891 3.25879V5.68066C4.12891 5.71582 4.14551 5.74805 4.17383 5.76855L5.62793 6.8291C5.67676 6.86426 5.74512 6.85449 5.78027 6.80566L6.03125 6.46289V6.46191C6.06641 6.41309 6.05566 6.34473 6.00684 6.30957L4.76953 5.41504V3.25879C4.77051 3.19824 4.7207 3.14941 4.66113 3.14941Z" fill="black"/>
<path d="M7.85938 6.58111H7.29493C7.24024 6.58111 7.18848 6.60943 7.15919 6.6563C7.03516 6.85259 6.89063 7.03423 6.72462 7.20025C6.43848 7.48638 6.10548 7.71099 5.73536 7.86724C5.35157 8.02935 4.94434 8.11138 4.52442 8.11138C4.10352 8.11138 3.6963 8.02935 3.31348 7.86724C2.94337 7.71099 2.61036 7.48638 2.32423 7.20025C2.03809 6.91412 1.81348 6.58111 1.65723 6.21099C1.49512 5.82818 1.41309 5.42095 1.41309 5.00005C1.41309 4.57916 1.49512 4.17291 1.65723 3.78912C1.81348 3.419 2.03809 3.08599 2.32423 2.79986C2.61036 2.51373 2.94337 2.28912 3.31348 2.13287C3.6963 1.97076 4.1045 1.88873 4.52442 1.88873C4.94532 1.88873 5.35255 1.97076 5.73536 2.13287C6.10548 2.28912 6.43848 2.51373 6.72462 2.79986C6.89063 2.96587 7.03516 3.14751 7.15919 3.3438C7.18848 3.39068 7.24024 3.419 7.29493 3.419H7.85938C7.92676 3.419 7.96973 3.34869 7.93946 3.28912C7.30274 2.02251 6.01173 1.19927 4.57032 1.18267C2.45997 1.1563 0.707038 2.88384 0.703132 4.99224C0.699225 7.10455 2.41114 8.81841 4.52344 8.81841C5.98341 8.81841 7.29591 7.99224 7.93946 6.71099C7.96973 6.65142 7.92579 6.58111 7.85938 6.58111Z" fill="black"/>
</svg>
