<svg width="17" height="16" viewBox="0 0 17 16" fill="none" xmlns="http://www.w3.org/2000/svg">
<path d="M16.5867 1.11111C16.4098 0.955732 16.1784 0.876889 15.9435 0.891887C15.7085 0.906886 15.489 1.0145 15.3333 1.19111L13.6711 3.10222L13.1111 2.47111C12.9543 2.2943 12.7337 2.18701 12.4979 2.17284C12.262 2.15867 12.0301 2.23878 11.8533 2.39556C11.6765 2.55233 11.5692 2.77292 11.5551 3.0088C11.5409 3.24468 11.621 3.47652 11.7778 3.65333L13.0133 5.04C13.0974 5.1332 13.2003 5.20753 13.3152 5.25808C13.4301 5.30864 13.5545 5.33429 13.68 5.33333C13.8047 5.33192 13.9277 5.30428 14.041 5.25222C14.1544 5.20015 14.2555 5.12481 14.3378 5.03111L16.6578 2.36445C16.8142 2.18867 16.8946 1.95803 16.8813 1.72308C16.868 1.48813 16.762 1.26806 16.5867 1.11111ZM6.22222 7.11111C6.92544 7.11111 7.61287 6.90258 8.19758 6.51189C8.78229 6.1212 9.23802 5.5659 9.50713 4.91621C9.77624 4.26652 9.84665 3.55161 9.70946 2.8619C9.57227 2.17219 9.23363 1.53865 8.73638 1.0414C8.23913 0.544146 7.60559 0.205512 6.91588 0.0683206C6.22617 -0.0688713 5.51126 0.00154055 4.86157 0.270652C4.21188 0.539764 3.65657 0.995488 3.26589 1.5802C2.8752 2.1649 2.66667 2.85233 2.66667 3.55556C2.66667 4.49855 3.04127 5.40292 3.70806 6.06971C4.37486 6.73651 5.27923 7.11111 6.22222 7.11111ZM11.5556 16C11.7913 16 12.0174 15.9064 12.1841 15.7397C12.3508 15.573 12.4444 15.3469 12.4444 15.1111C12.4444 13.4609 11.7889 11.8782 10.622 10.7113C9.4551 9.54444 7.87246 8.88889 6.22222 8.88889C4.57199 8.88889 2.98934 9.54444 1.82245 10.7113C0.655554 11.8782 2.45904e-08 13.4609 0 15.1111C0 15.3469 0.0936505 15.573 0.260349 15.7397C0.427048 15.9064 0.653141 16 0.888889 16" fill="black"/>
</svg>
