<svg width="14" height="16" viewBox="0 0 14 16" fill="none" xmlns="http://www.w3.org/2000/svg">
<path d="M10.1284 4.33028V3.44954C10.1284 3.36881 10.0624 3.30275 9.98165 3.30275H2.93578C2.85505 3.30275 2.78899 3.36881 2.78899 3.44954V4.33028C2.78899 4.41101 2.85505 4.47706 2.93578 4.47706H9.98165C10.0624 4.47706 10.1284 4.41101 10.1284 4.33028ZM2.93578 5.94495C2.85505 5.94495 2.78899 6.01101 2.78899 6.09174V6.97248C2.78899 7.05321 2.85505 7.11927 2.93578 7.11927H6.31193C6.39266 7.11927 6.45872 7.05321 6.45872 6.97248V6.09174C6.45872 6.01101 6.39266 5.94495 6.31193 5.94495H2.93578ZM9.83486 8.07339C7.64587 8.07339 5.87156 9.84771 5.87156 12.0367C5.87156 14.2257 7.64587 16 9.83486 16C12.0239 16 13.7982 14.2257 13.7982 12.0367C13.7982 9.84771 12.0239 8.07339 9.83486 8.07339ZM11.8073 14.0092C11.2807 14.5358 10.5798 14.8257 9.83486 14.8257C9.08991 14.8257 8.38899 14.5358 7.86239 14.0092C7.33578 13.4826 7.04587 12.7817 7.04587 12.0367C7.04587 11.2917 7.33578 10.5908 7.86239 10.0642C8.38899 9.53761 9.08991 9.24771 9.83486 9.24771C10.5798 9.24771 11.2807 9.53761 11.8073 10.0642C12.3339 10.5908 12.6239 11.2917 12.6239 12.0367C12.6239 12.7817 12.3339 13.4826 11.8073 14.0092ZM11.4679 10.6422H10.655C10.6073 10.6422 10.5633 10.6642 10.5358 10.7028L9.37064 12.3138L8.94679 11.7284C8.93321 11.7095 8.91529 11.6942 8.89454 11.6836C8.87378 11.6731 8.8508 11.6677 8.82752 11.6679H8.01835C7.89908 11.6679 7.82936 11.8037 7.89908 11.9009L9.25321 13.7743C9.31193 13.855 9.43119 13.855 9.48991 13.7743L11.5853 10.8752C11.6569 10.778 11.5872 10.6422 11.4679 10.6422ZM5.57798 14.2385H1.3211V1.3211H11.5963V7.63303C11.5963 7.71376 11.6624 7.77982 11.7431 7.77982H12.7706C12.8514 7.77982 12.9174 7.71376 12.9174 7.63303V0.587156C12.9174 0.262385 12.655 0 12.3303 0H0.587156C0.262385 0 0 0.262385 0 0.587156V14.9725C0 15.2972 0.262385 15.5596 0.587156 15.5596H5.57798C5.65872 15.5596 5.72477 15.4936 5.72477 15.4128V14.3853C5.72477 14.3046 5.65872 14.2385 5.57798 14.2385Z" fill="black"/>
</svg>
