<svg width="10" height="9" viewBox="0 0 10 9" fill="none" xmlns="http://www.w3.org/2000/svg">
<path d="M8.7307 3.00973C8.68138 3.08262 8.65217 3.16724 8.64603 3.25503C8.63988 3.34283 8.65702 3.43069 8.6957 3.50974C8.8198 3.79939 8.90715 4.10343 8.95571 4.41477C9.08442 5.21986 8.96404 6.04506 8.6107 6.77984C8.56779 6.86043 8.50363 6.92773 8.42518 6.97445C8.34673 7.02117 8.25699 7.04551 8.16569 7.04484H1.84051C1.74869 7.04503 1.6586 7.01994 1.5801 6.97231C1.5016 6.92468 1.43773 6.85636 1.3955 6.77484C1.07543 6.12554 0.937556 5.40155 0.996579 4.68006C1.0556 3.95857 1.30931 3.26662 1.73065 2.67797C2.15199 2.08932 2.72517 1.62605 3.3891 1.33753C4.05302 1.04901 4.78279 0.946069 5.50061 1.03967C5.86382 1.08236 6.21907 1.17665 6.55564 1.31968C6.63469 1.35837 6.72256 1.37551 6.81035 1.36936C6.89815 1.36321 6.98277 1.334 7.05566 1.28468C7.1316 1.23465 7.19246 1.16486 7.23168 1.08281C7.27091 1.00077 7.28702 0.90958 7.27828 0.819061C7.26953 0.728542 7.23627 0.642122 7.18206 0.569102C7.12786 0.496082 7.05477 0.439227 6.97065 0.404657C6.00473 -0.00952637 4.93285 -0.108814 3.90727 0.120898C2.8817 0.350609 1.95459 0.89764 1.25762 1.68428C0.560659 2.47093 0.129288 3.45719 0.0247846 4.50296C-0.0797186 5.54874 0.14796 6.60085 0.675478 7.50986C0.762736 7.661 0.888029 7.78667 1.0389 7.87439C1.18978 7.96211 1.36098 8.00882 1.5355 8.00987H8.4607C8.63691 8.01057 8.81018 7.96469 8.96296 7.87689C9.11575 7.78908 9.24261 7.66247 9.33072 7.50986C9.71692 6.84056 9.94274 6.09086 9.99046 5.3196C10.0382 4.54835 9.90648 3.77653 9.60573 3.06473C9.56764 2.98361 9.50844 2.91422 9.43434 2.86381C9.36023 2.81341 9.27394 2.78385 9.1845 2.77823C9.09505 2.77261 9.00574 2.79113 8.92591 2.83185C8.84607 2.87258 8.77866 2.93402 8.7307 3.00973Z" fill="black"/>
<path d="M4.29551 4.30475C4.10786 4.4924 4.00244 4.7469 4.00244 5.01227C4.00244 5.14367 4.02832 5.27378 4.07861 5.39518C4.12889 5.51657 4.20259 5.62688 4.29551 5.71979C4.38842 5.8127 4.49872 5.8864 4.62012 5.93669C4.74151 5.98697 4.87163 6.01285 5.00303 6.01285C5.2684 6.01285 5.5229 5.90743 5.71055 5.71979L8.54062 1.47467L4.29551 4.30475Z" fill="black"/>
</svg>
