<svg width="21" height="20" viewBox="0 0 21 20" fill="none" xmlns="http://www.w3.org/2000/svg">
<path d="M4.63052 4.99831H5.68752C6.03562 4.99831 6.36946 5.13001 6.6156 5.36443C6.86174 5.59885 7.00002 5.91679 7.00002 6.24831C7.00002 6.57983 6.86174 6.89777 6.6156 7.13219C6.36946 7.36661 6.03562 7.49831 5.68752 7.49831H1.3125C0.964407 7.49831 0.630566 7.36661 0.384424 7.13219C0.138281 6.89777 0 6.57983 0 6.24831V2.08165C7.33561e-09 1.75013 0.138281 1.43219 0.384424 1.19777C0.630566 0.963346 0.964407 0.83165 1.3125 0.83165C1.6606 0.83165 1.99444 0.963346 2.24059 1.19777C2.48673 1.43219 2.62501 1.75013 2.62501 2.08165V3.38331C4.20833 1.67456 6.357 0.532123 8.71518 0.145199C11.0734 -0.241726 13.4996 0.150076 15.592 1.25572C17.6844 2.36136 19.3176 4.11451 20.2209 6.22483C21.1243 8.33515 21.2437 10.676 20.5594 12.8598C19.8751 15.0436 18.4281 16.9392 16.458 18.2328C14.4879 19.5264 12.113 20.1404 9.72659 19.973C7.34013 19.8056 5.08531 18.8669 3.33552 17.3123C1.58574 15.7578 0.445983 13.6807 0.105 11.425C0.0558024 11.0965 0.14561 10.763 0.354667 10.4976C0.563724 10.2322 0.874905 10.0568 1.21975 10.01C1.5646 9.96312 1.91487 10.0486 2.19351 10.2477C2.47214 10.4468 2.65631 10.7432 2.70551 11.0716C2.96172 12.7614 3.81549 14.3174 5.12578 15.4826C6.43608 16.6478 8.12452 17.3524 9.91217 17.4801C11.6998 17.6079 13.4798 17.151 14.9579 16.1851C16.4361 15.2191 17.5241 13.8018 18.0421 12.1674C18.5602 10.5329 18.4773 8.77906 17.8073 7.19551C17.1372 5.61196 15.92 4.29346 14.3567 3.45782C12.7934 2.62219 10.9776 2.3194 9.20922 2.59949C7.44083 2.87958 5.82566 3.72578 4.63052 4.99831ZM10.0625 4.99831C10.4106 4.99831 10.7445 5.13001 10.9906 5.36443C11.2368 5.59885 11.375 5.91679 11.375 6.24831V9.16497H12.6875C13.0356 9.16497 13.3695 9.29667 13.6156 9.53109C13.8618 9.76551 14 10.0834 14 10.415C14 10.7465 13.8618 11.0644 13.6156 11.2989C13.3695 11.5333 13.0356 11.665 12.6875 11.665H10.0625C9.71444 11.665 9.3806 11.5333 9.13445 11.2989C8.88831 11.0644 8.75003 10.7465 8.75003 10.415V6.24831C8.75003 5.91679 8.88831 5.59885 9.13445 5.36443C9.3806 5.13001 9.71444 4.99831 10.0625 4.99831Z" fill="#C22A23"/>
</svg>
