<?xml version="1.0" standalone="no"?>
<!DOCTYPE svg PUBLIC "-//W3C//DTD SVG 20010904//EN"
 "http://www.w3.org/TR/2001/REC-SVG-20010904/DTD/svg10.dtd">
<svg version="1.0" xmlns="http://www.w3.org/2000/svg"
 width="128.000000pt" height="128.000000pt" viewBox="0 0 128.000000 128.000000"
 preserveAspectRatio="xMidYMid meet">

<g transform="translate(0.000000,128.000000) scale(0.100000,-0.100000)"
fill="#000000" stroke="none">
<path d="M70 1262 c-66 -32 -70 -54 -70 -350 0 -385 -16 -366 312 -370 l227
-3 3 -227 c4 -328 -15 -312 370 -312 387 0 368 -19 368 368 0 385 16 366 -312
370 l-228 3 0 216 c0 336 15 323 -365 323 -237 0 -274 -2 -305 -18z m592 -59
c16 -15 18 -36 18 -239 l0 -224 -27 -5 c-16 -4 -39 -12 -52 -19 -21 -12 -26
-11 -42 5 -11 11 -30 19 -44 19 -26 0 -95 25 -95 34 0 3 11 22 25 42 14 21 32
61 41 90 14 48 18 53 47 56 24 2 32 8 32 23 0 18 -8 20 -82 23 l-83 3 0 52 c0
60 -10 80 -36 75 -16 -3 -20 -14 -22 -66 l-3 -62 -85 0 c-83 0 -85 -1 -82 -22
2 -17 11 -24 34 -26 27 -3 32 -8 43 -52 7 -28 23 -65 35 -82 12 -18 25 -38 29
-45 9 -15 -51 -43 -92 -43 -35 0 -54 -14 -49 -36 5 -27 88 -24 150 6 l48 22
47 -23 c29 -14 66 -23 98 -23 43 -1 51 -4 44 -16 -4 -8 -10 -27 -14 -43 l-5
-27 -218 0 c-181 0 -221 3 -240 16 -22 15 -22 17 -22 291 0 243 2 279 17 295
15 17 37 18 291 18 242 0 278 -2 294 -17z m-222 -260 c0 -21 -32 -90 -54 -117
-8 -10 -20 -15 -26 -11 -16 10 -60 101 -60 125 0 18 6 20 70 20 60 0 70 -2 70
-17z m762 -280 c17 -15 18 -37 18 -291 0 -242 -2 -278 -17 -294 -15 -17 -37
-18 -294 -18 -276 0 -278 0 -293 22 -14 19 -16 64 -16 290 0 255 1 269 20 288
19 19 33 20 292 20 239 0 274 -2 290 -17z"/>
<path d="M893 568 c-19 -24 -144 -380 -139 -394 7 -17 30 -18 44 -1 5 6 15 29
23 50 l13 38 80 -3 80 -3 17 -45 c17 -46 51 -66 62 -37 6 16 -123 367 -143
392 -15 18 -25 19 -37 3z m45 -170 c12 -35 22 -66 22 -70 0 -5 -23 -8 -51 -8
-35 0 -49 4 -47 13 13 47 43 127 47 127 4 0 16 -28 29 -62z"/>
<path d="M847 1273 c-4 -3 -7 -14 -7 -24 0 -19 10 -23 85 -33 60 -8 158 -61
200 -107 43 -48 85 -133 92 -189 l5 -39 -53 -3 c-43 -2 -55 -7 -57 -22 -2 -10
2 -22 10 -27 19 -12 116 -11 140 2 18 10 19 17 14 63 -20 153 -101 274 -228
338 -70 36 -184 59 -201 41z"/>
<path d="M16 447 c-16 -12 -17 -20 -8 -81 29 -185 159 -322 339 -356 71 -14
93 -9 93 19 0 21 -9 25 -83 35 -55 7 -138 48 -186 91 -46 42 -100 143 -108
203 l-5 41 53 3 c43 2 55 7 57 22 2 10 -2 22 -10 27 -21 14 -122 10 -142 -4z"/>
</g>
</svg>
