<svg width="16" height="20" viewBox="0 0 16 20" fill="none" xmlns="http://www.w3.org/2000/svg">
<path d="M7.77626 20C6.37314 18.8032 5.07256 17.4911 3.88813 16.0774C2.1107 13.9545 9.76359e-07 10.7929 9.76359e-07 7.78016C-0.000769872 6.24153 0.454921 4.73725 1.3094 3.4577C2.16389 2.17815 3.37875 1.18085 4.80025 0.592004C6.22175 0.0031624 7.78598 -0.150748 9.29498 0.14975C10.804 0.450249 12.1899 1.19165 13.2774 2.28012C14.0014 3.00094 14.5753 3.85819 14.9658 4.80227C15.3564 5.74635 15.5558 6.7585 15.5525 7.78016C15.5525 10.7929 13.4418 13.9545 11.6644 16.0774C10.48 17.4911 9.17939 18.8032 7.77626 20ZM7.77626 2.22569C6.30367 2.22745 4.89189 2.81322 3.85061 3.8545C2.80932 4.89579 2.22355 6.30756 2.22179 7.78016C2.22179 9.07546 2.80723 11.3184 5.59336 14.6522C6.28003 15.4721 7.00864 16.2559 7.77626 17.0006C8.54391 16.2568 9.27287 15.474 9.96028 14.6555C12.7453 11.3172 13.3307 9.07435 13.3307 7.78016C13.329 6.30756 12.7432 4.89579 11.7019 3.8545C10.6606 2.81322 9.24886 2.22745 7.77626 2.22569ZM7.77626 11.1128C6.89238 11.1128 6.0447 10.7617 5.4197 10.1367C4.7947 9.51173 4.44358 8.66404 4.44358 7.78016C4.44358 6.89628 4.7947 6.0486 5.4197 5.4236C6.0447 4.7986 6.89238 4.44748 7.77626 4.44748C8.66015 4.44748 9.50783 4.7986 10.1328 5.4236C10.7578 6.0486 11.1089 6.89628 11.1089 7.78016C11.1089 8.66404 10.7578 9.51173 10.1328 10.1367C9.50783 10.7617 8.66015 11.1128 7.77626 11.1128Z" fill="black"/>
</svg>
