<svg width="14" height="16" viewBox="0 0 14 16" fill="none" xmlns="http://www.w3.org/2000/svg">
<path d="M10.8889 1.52381H8.41556C8.08889 0.64 7.23333 0 6.22222 0C5.21111 0 4.35556 0.64 4.02889 1.52381H1.55556C0.7 1.52381 0 2.20952 0 3.04762V14.4762C0 15.3143 0.7 16 1.55556 16H6.30778C5.84762 15.5625 5.47328 15.046 5.20333 14.4762H1.55556V3.04762H3.11111V3.80952C3.11111 4.64762 3.81111 5.33333 4.66667 5.33333H7.77778C8.63333 5.33333 9.33333 4.64762 9.33333 3.80952V3.04762H10.8889V6.9181C11.4411 6.99429 11.9622 7.15429 12.4444 7.37524V3.04762C12.4444 2.20952 11.7444 1.52381 10.8889 1.52381ZM6.22222 3.04762C5.79444 3.04762 5.44444 2.70476 5.44444 2.28571C5.44444 1.86667 5.79444 1.52381 6.22222 1.52381C6.65 1.52381 7 1.86667 7 2.28571C7 2.70476 6.65 3.04762 6.22222 3.04762ZM10.1111 8.38095C7.96444 8.38095 6.22222 10.0876 6.22222 12.1905C6.22222 14.2933 7.96444 16 10.1111 16C12.2578 16 14 14.2933 14 12.1905C14 10.0876 12.2578 8.38095 10.1111 8.38095ZM11.1144 13.7143L9.83111 12.4571C9.75853 12.3863 9.71673 12.2908 9.71444 12.1905V10.2933C9.71444 10.08 9.88556 9.91238 10.1033 9.91238C10.3211 9.91238 10.4922 10.08 10.4922 10.2933V12.0381L11.6589 13.181C11.6952 13.2158 11.7242 13.2574 11.744 13.3034C11.7638 13.3493 11.7742 13.3986 11.7744 13.4484C11.7747 13.4983 11.7648 13.5477 11.7455 13.5938C11.7261 13.6399 11.6976 13.6817 11.6617 13.717C11.6257 13.7522 11.5829 13.7802 11.5359 13.7991C11.4888 13.8181 11.4384 13.8277 11.3875 13.8275C11.3366 13.8272 11.2863 13.8171 11.2394 13.7976C11.1925 13.7782 11.1501 13.7499 11.1144 13.7143Z" fill="black"/>
</svg>
