<svg width="22" height="17" viewBox="0 0 22 17" fill="none" xmlns="http://www.w3.org/2000/svg">
<path d="M4.636 1.71929C4.81816 1.53069 4.91895 1.27808 4.91667 1.01589C4.9144 0.75369 4.80923 0.502878 4.62382 0.31747C4.43841 0.132062 4.1876 0.0268926 3.9254 0.0246142C3.6632 0.0223358 3.4106 0.12313 3.222 0.305288C-1.074 4.60129 -1.074 11.5653 3.222 15.8613C3.4106 16.0434 3.6632 16.1442 3.9254 16.142C4.1876 16.1397 4.43841 16.0345 4.62382 15.8491C4.80923 15.6637 4.9144 15.4129 4.91667 15.1507C4.91895 14.8885 4.81816 14.6359 4.636 14.4473C3.80026 13.6116 3.13732 12.6194 2.68502 11.5275C2.23272 10.4355 1.99992 9.26519 1.99992 8.08329C1.99992 6.90138 2.23272 5.73105 2.68502 4.63911C3.13732 3.54717 3.80026 2.55502 4.636 1.71929ZM18.778 0.305288C18.6858 0.209778 18.5754 0.133596 18.4534 0.0811869C18.3314 0.0287779 18.2002 0.00119157 18.0674 3.77567e-05C17.9346 -0.00111606 17.8029 0.0241857 17.68 0.0744666C17.5571 0.124747 17.4455 0.199001 17.3516 0.292893C17.2577 0.386786 17.1835 0.498438 17.1332 0.621334C17.0829 0.744231 17.0576 0.87591 17.0588 1.00869C17.0599 1.14147 17.0875 1.27269 17.1399 1.39469C17.1923 1.5167 17.2685 1.62704 17.364 1.71929C18.1997 2.55502 18.8627 3.54717 19.315 4.63911C19.7673 5.73105 20.0001 6.90138 20.0001 8.08329C20.0001 9.26519 19.7673 10.4355 19.315 11.5275C18.8627 12.6194 18.1997 13.6116 17.364 14.4473C17.2685 14.5395 17.1923 14.6499 17.1399 14.7719C17.0875 14.8939 17.0599 15.0251 17.0588 15.1579C17.0576 15.2907 17.0829 15.4223 17.1332 15.5452C17.1835 15.6681 17.2577 15.7798 17.3516 15.8737C17.4455 15.9676 17.5571 16.0418 17.68 16.0921C17.8029 16.1424 17.9346 16.1677 18.0674 16.1665C18.2002 16.1654 18.3314 16.1378 18.4534 16.0854C18.5754 16.033 18.6858 15.9568 18.778 15.8613C23.074 11.5653 23.074 4.60129 18.778 0.305288ZM7.464 4.54729C7.64616 4.35869 7.74695 4.10608 7.74467 3.84389C7.7424 3.58169 7.63723 3.33088 7.45182 3.14547C7.26641 2.96006 7.0156 2.85489 6.7534 2.85261C6.4912 2.85034 6.2386 2.95113 6.05 3.13329C5.39991 3.78331 4.88423 4.55501 4.53241 5.40434C4.18058 6.25366 3.9995 7.16397 3.9995 8.08329C3.9995 9.0026 4.18058 9.91291 4.53241 10.7622C4.88423 11.6116 5.39991 12.3833 6.05 13.0333C6.2386 13.2154 6.4912 13.3162 6.7534 13.314C7.0156 13.3117 7.26641 13.2065 7.45182 13.0211C7.63723 12.8357 7.7424 12.5849 7.74467 12.3227C7.74695 12.0605 7.64616 11.8079 7.464 11.6193C6.99957 11.155 6.63115 10.6037 6.3798 9.99701C6.12844 9.3903 5.99907 8.74001 5.99907 8.08329C5.99907 7.42657 6.12844 6.77628 6.3798 6.16957C6.63115 5.56285 6.99957 5.0116 7.464 4.54729ZM15.95 3.13329C15.8578 3.03778 15.7474 2.9616 15.6254 2.90919C15.5034 2.85678 15.3722 2.82919 15.2394 2.82804C15.1066 2.82688 14.9749 2.85219 14.852 2.90247C14.7291 2.95275 14.6175 3.027 14.5236 3.12089C14.4297 3.21479 14.3555 3.32644 14.3052 3.44933C14.2549 3.57223 14.2296 3.70391 14.2307 3.83669C14.2319 3.96947 14.2595 4.10069 14.3119 4.22269C14.3643 4.3447 14.4405 4.45504 14.536 4.54729C15.0004 5.0116 15.3688 5.56285 15.6202 6.16957C15.8716 6.77628 16.0009 7.42657 16.0009 8.08329C16.0009 8.74001 15.8716 9.3903 15.6202 9.99701C15.3688 10.6037 15.0004 11.155 14.536 11.6193C14.3538 11.8079 14.253 12.0605 14.2553 12.3227C14.2576 12.5849 14.3628 12.8357 14.5482 13.0211C14.7336 13.2065 14.9844 13.3117 15.2466 13.314C15.5088 13.3162 15.7614 13.2154 15.95 13.0333C16.6001 12.3833 17.1158 11.6116 17.4676 10.7622C17.8194 9.91291 18.0005 9.0026 18.0005 8.08329C18.0005 7.16397 17.8194 6.25366 17.4676 5.40434C17.1158 4.55501 16.6001 3.78331 15.95 3.13329ZM10 8.08329C10 7.81807 10.1054 7.56372 10.2929 7.37618C10.4804 7.18865 10.7348 7.08329 11 7.08329C11.2652 7.08329 11.5196 7.18865 11.7071 7.37618C11.8946 7.56372 12 7.81807 12 8.08329C12 8.34851 11.8946 8.60286 11.7071 8.79039C11.5196 8.97793 11.2652 9.08329 11 9.08329C10.7348 9.08329 10.4804 8.97793 10.2929 8.79039C10.1054 8.60286 10 8.34851 10 8.08329ZM11 5.08329C10.2044 5.08329 9.44129 5.39936 8.87868 5.96197C8.31607 6.52458 8 7.28764 8 8.08329C8 8.87894 8.31607 9.642 8.87868 10.2046C9.44129 10.7672 10.2044 11.0833 11 11.0833C11.7956 11.0833 12.5587 10.7672 13.1213 10.2046C13.6839 9.642 14 8.87894 14 8.08329C14 7.28764 13.6839 6.52458 13.1213 5.96197C12.5587 5.39936 11.7956 5.08329 11 5.08329Z" fill="black"/>
</svg>
