<svg width="12" height="16" viewBox="0 0 12 16" fill="none" xmlns="http://www.w3.org/2000/svg">
<path d="M11.0813 4.10625L7.14375 0.16875C7.03125 0.05625 6.91875 0 6.75 0H1.125C0.50625 0 0 0.50625 0 1.125V14.625C0 15.2437 0.50625 15.75 1.125 15.75H10.125C10.7437 15.75 11.25 15.2437 11.25 14.625V4.5C11.25 4.33125 11.1938 4.21875 11.0813 4.10625ZM6.75 1.35L9.9 4.5H6.75V1.35ZM10.125 14.625H1.125V1.125H5.625V4.5C5.625 5.11875 6.13125 5.625 6.75 5.625H10.125V14.625Z" fill="#C22A23"/>
<path d="M2.25 11.25H9V12.375H2.25V11.25Z" fill="#C22A23"/>
<path d="M2.625 7.875H9.375V9H2.625V7.875Z" fill="#C22A23"/>
</svg>
