<svg width="22" height="16" viewBox="0 0 22 16" fill="none" xmlns="http://www.w3.org/2000/svg">
<path d="M0 15.3333C0 15.5101 0.070238 15.6797 0.195262 15.8047C0.320287 15.9298 0.489856 16 0.666667 16H20.6667C20.8435 16 21.013 15.9298 21.1381 15.8047C21.2631 15.6797 21.3333 15.5101 21.3333 15.3333C21.3333 15.1565 21.2631 14.987 21.1381 14.8619C21.013 14.7369 20.8435 14.6667 20.6667 14.6667H0.666667C0.489856 14.6667 0.320287 14.7369 0.195262 14.8619C0.070238 14.987 0 15.1565 0 15.3333ZM4.19467 11.8053C4.25659 11.8674 4.33016 11.9167 4.41115 11.9503C4.49215 11.9839 4.57898 12.0012 4.66667 12.0012C4.75436 12.0012 4.84118 11.9839 4.92218 11.9503C5.00317 11.9167 5.07674 11.8674 5.13867 11.8053L8.472 8.472C8.59718 8.34682 8.66751 8.17703 8.66751 8C8.66751 7.82297 8.59718 7.65318 8.472 7.528C8.34682 7.40282 8.17703 7.33249 8 7.33249C7.82297 7.33249 7.65318 7.40282 7.528 7.528L5.33333 9.724V0.666666C5.33333 0.489855 5.26309 0.320286 5.13807 0.195261C5.01305 0.0702372 4.84348 0 4.66667 0C4.48986 0 4.32029 0.0702372 4.19526 0.195261C4.07024 0.320286 4 0.489855 4 0.666666V9.724L1.80533 7.528C1.68015 7.40282 1.51037 7.33249 1.33333 7.33249C1.1563 7.33249 0.986515 7.40282 0.861333 7.528C0.736151 7.65318 0.665825 7.82297 0.665825 8C0.665825 8.17703 0.736151 8.34682 0.861333 8.472L4.19467 11.8053ZM20.6667 10.6667H11.3333C11.1565 10.6667 10.987 10.7369 10.8619 10.8619C10.7369 10.987 10.6667 11.1565 10.6667 11.3333C10.6667 11.5101 10.7369 11.6797 10.8619 11.8047C10.987 11.9298 11.1565 12 11.3333 12H20.6667C20.8435 12 21.013 11.9298 21.1381 11.8047C21.2631 11.6797 21.3333 11.5101 21.3333 11.3333C21.3333 11.1565 21.2631 10.987 21.1381 10.8619C21.013 10.7369 20.8435 10.6667 20.6667 10.6667Z" fill="black"/>
</svg>
