<svg width="12" height="12" viewBox="0 0 12 12" fill="none" xmlns="http://www.w3.org/2000/svg">
<path d="M6 0C2.69169 0 0 2.69169 0 6C0 9.30831 2.69169 12 6 12C9.30831 12 12 9.30831 12 6C12 2.69169 9.30831 0 6 0ZM6 0.923077C8.80938 0.923077 11.0769 3.19062 11.0769 6C11.0769 7.25815 10.62 8.40277 9.86539 9.28846L2.78308 2.06308C3.69083 1.32168 4.82797 0.918706 6 0.923077ZM2.13462 2.71154L9.21692 9.93692C8.30917 10.6783 7.17203 11.0813 6 11.0769C3.19062 11.0769 0.923077 8.80938 0.923077 6C0.923077 4.74185 1.38 3.59723 2.13462 2.71154Z" fill="black" fill-opacity="0.75"/>
</svg>
