<svg width="10" height="7" viewBox="0 0 10 7" fill="none" xmlns="http://www.w3.org/2000/svg">
<path d="M0 0H10V6.66667H0V0ZM5 1.66667C5.44203 1.66667 5.86595 1.84226 6.17851 2.15482C6.49107 2.46738 6.66667 2.89131 6.66667 3.33333C6.66667 3.77536 6.49107 4.19928 6.17851 4.51184C5.86595 4.82441 5.44203 5 5 5C4.55797 5 4.13405 4.82441 3.82149 4.51184C3.50893 4.19928 3.33333 3.77536 3.33333 3.33333C3.33333 2.89131 3.50893 2.46738 3.82149 2.15482C4.13405 1.84226 4.55797 1.66667 5 1.66667ZM2.22222 1.11111C2.22222 1.4058 2.10516 1.68841 1.89679 1.89679C1.68841 2.10516 1.4058 2.22222 1.11111 2.22222V4.44444C1.4058 4.44444 1.68841 4.56151 1.89679 4.76988C2.10516 4.97825 2.22222 5.26087 2.22222 5.55556H7.77778C7.77778 5.26087 7.89484 4.97825 8.10322 4.76988C8.31159 4.56151 8.5942 4.44444 8.88889 4.44444V2.22222C8.5942 2.22222 8.31159 2.10516 8.10322 1.89679C7.89484 1.68841 7.77778 1.4058 7.77778 1.11111H2.22222Z" fill="black"/>
</svg>
