<svg width="22" height="20" viewBox="0 0 22 20" fill="none" xmlns="http://www.w3.org/2000/svg">
<path d="M18.2931 20H3.22819C2.9428 20 2.6691 19.8866 2.4673 19.6848C2.2655 19.483 2.15212 19.2093 2.15212 18.9239V10.3154H0L9.99877 0.315595C10.0987 0.215546 10.2174 0.136177 10.348 0.0820247C10.4786 0.0278726 10.6187 0 10.7601 0C10.9015 0 11.0415 0.0278726 11.1722 0.0820247C11.3028 0.136177 11.4215 0.215546 11.5214 0.315595L21.5212 10.3154H19.3691V18.9239C19.3691 19.2093 19.2558 19.483 19.0539 19.6848C18.8521 19.8866 18.5784 20 18.2931 20ZM8.6085 12.4676H12.9127V17.8479H17.217V9.0543L10.7606 2.59792L4.30425 9.0543V17.8479H8.6085V12.4676Z" fill="#FFCC00"/>
</svg>
